<?xml version="1.0" standalone="no"?>
<!DOCTYPE svg PUBLIC "-//W3C//DTD SVG 20010904//EN"
 "http://www.w3.org/TR/2001/REC-SVG-20010904/DTD/svg10.dtd">
<svg version="1.0" xmlns="http://www.w3.org/2000/svg"
 width="419.000000pt" height="540.000000pt" viewBox="0 0 419.000000 540.000000"
 preserveAspectRatio="xMidYMid meet">

<g transform="translate(0.000000,540.000000) scale(0.100000,-0.100000)"
fill="#000000" stroke="none">
<path d="M140 2725 l0 -2545 552 0 552 0 28 27 28 27 0 1921 c0 1481 3 1924
12 1933 17 17 1559 17 1576 0 9 -9 12 -460 12 -1970 l0 -1958 575 0 575 0 0
2538 c0 2447 -1 2539 -18 2555 -17 16 -167 17 -1955 17 l-1937 0 0 -2545z"/>
</g>
</svg>
