<?xml version="1.0" standalone="no"?>
<!DOCTYPE svg PUBLIC "-//W3C//DTD SVG 20010904//EN"
 "http://www.w3.org/TR/2001/REC-SVG-20010904/DTD/svg10.dtd">
<svg version="1.0" xmlns="http://www.w3.org/2000/svg"
 width="748.000000pt" height="792.000000pt" viewBox="0 0 748.000000 792.000000"
 preserveAspectRatio="xMidYMid meet">

<g transform="translate(0.000000,792.000000) scale(0.100000,-0.100000)"
fill="#000000" stroke="none">
<path d="M425 7578 c-2 -7 -1 -1658 3 -3668 l7 -3655 1040 0 1040 0 5 2805 c3
1543 6 2806 8 2808 1 1 592 2 1312 2 l1310 0 0 -2817 c0 -1550 4 -2824 8
-2831 7 -10 230 -12 1083 -10 l1074 3 0 3685 0 3685 -3443 3 c-2749 2 -3443 0
-3447 -10z m6623 -845 l2 -583 -3180 0 -3180 0 0 578 c0 318 3 582 7 585 3 4
1433 6 3177 5 l3171 -3 3 -582z m-4798 -3532 l0 -2668 -31 -7 c-40 -8 -1467
-8 -1496 0 l-23 6 0 2669 0 2669 775 0 775 0 0 -2669z m4800 -40 l0 -2669 -22
-6 c-30 -8 -1562 -8 -1582 0 -15 6 -16 251 -16 2675 l0 2669 810 0 810 0 0
-2669z"/>
</g>
</svg>
